<svg xmlns="http://www.w3.org/2000/svg" viewBox="0 0 144.17 187.57"><defs><style>.cls-1{fill:#ffc1b0;}.cls-2{fill:#e2a291;}.cls-3{fill:#cea68a;}.cls-4,.cls-7{fill:none;stroke-linecap:round;stroke-miterlimit:10;}.cls-4{stroke:#876933;stroke-width:5px;}.cls-5{fill:#f4b6ab;}.cls-6{fill:#a0805d;}.cls-7{stroke:#000;stroke-width:7px;}.cls-8{fill:#8e7251;}.cls-9{fill:#846942;}</style></defs><title>mattias-h-4 (2)</title><g id="Layer_2" data-name="Layer 2"><g id="Mattias_H" data-name="Mattias H"><g id="mattias-h-4"><ellipse class="cls-1" cx="9.93" cy="99.21" rx="15.88" ry="9.89" transform="translate(-89.73 102.15) rotate(-85.97)"/><ellipse class="cls-2" cx="10.4" cy="98.69" rx="9.02" ry="5.46" transform="translate(-88.78 102.13) rotate(-85.97)"/><ellipse class="cls-1" cx="134.26" cy="101.93" rx="9.89" ry="15.88" transform="translate(-4.85 6.72) rotate(-2.82)"/><ellipse class="cls-2" cx="133.79" cy="101.8" rx="5.46" ry="9.02" transform="translate(-4.84 6.7) rotate(-2.82)"/><path class="cls-1" d="M134.2,108.51c0,27.21-6.67,41.43-21,57C102.69,176.85,92,186.61,71.86,186.61c-19,0-27.71-10.26-38.95-22.34C18.38,148.66,9.51,135,9.51,108.51c0-47,14.88-85.09,62.35-85.09C128.92,23.42,134.2,61.52,134.2,108.51Z"/><ellipse cx="103.07" cy="106.41" rx="8.84" ry="7.2"/><path class="cls-3" d="M133.92,118.49a33.67,33.67,0,0,1-.66,6.8C133.8,121.07,133.92,118.49,133.92,118.49Z"/><path class="cls-4" d="M30,88.35s14.12-3.25,24.78-1.88"/><path class="cls-4" d="M116,90.72S103.65,86,91.26,88"/><ellipse cx="44.07" cy="106.41" rx="8.84" ry="7.2"/><path class="cls-5" d="M81.91,134.14c0,3.23-4.36,5.84-9.73,5.84s-9.73-2.61-9.73-5.84,4.36-30.76,9.73-30.76S81.91,130.91,81.91,134.14Z"/><path class="cls-6" d="M134.26,101.8l2.25,1.58-3-17.32-1.63,1.18L130,98.1l-3.47,8.3-3.32,7.2-.81-2.15-3.21,8-5.8,5.88-4.32,7.44-.19-3.23-3.74,6.79-2.85,3.08-1.67,4-4.86,2.69-7.9-2.69-3.69.66-6.88-.86-6.31.77-4.9-1.38-8.23.79-3.15.78-5.51,1.68-4.32-1.5L37.55,144l-7.6-4.9-8.69-7.89,2.65.46-4-9.94v-6.61H17.13V107.7l-3.56-5.9,1.31-10.24L13.75,77.9H12.62c-.79,2.72-4.59,5.44-5.39,8.17l2.29-.85L7.84,110.56l1.68-2,.1,21,1.6.18,2.2,10.3.85-2.95,4.5,13.23,1.1-2.15,5,9.47v-2.64L30,164.2l.83-2.25,5,7.32v-1.89l2.39,4.84,1.27-.7L42,176.31l1.27-1,4.65,6.05.56-1.55,3.1,3.1,2-.5,1.93,2.9,2.32-1,3.59,2.31,2.28-.71,2.65,1.67,5.5-1,2.24,1,3.24-1.22,2.25,1.22,3.25-2.06v2.06l5.06-3.24.56,2.28,4.93-4.53,2,.7,4.64-4.93v1.55l4.79-5.35,1,1.69L111,168l.93,2,4.13-7,1.13,2.25,4-9.54,1.09,3.16L126,148l1.1,2.52L129.59,140l1.1,2.63,1.09-10,2,1.57-.52-8.88,2.12,1.18-1.32-13.7,1.32,2.3Zm-37,64.65-3.94-.37-2.08,8.07-3.36-1.5-6.76,4.12V173.4l-1.88.56-.94-6.57H68.56l-3,5.63-3.1,2.82-1.59-3.38-4.69-1.32-3.26-5.63-2.56,1.32-4-7.89L51.29,152h9.2l6,3,6.57-1.31,10.13,2.44,4.51-2.44h8.45l3.56,5.25Z"/><path class="cls-7" d="M52.91,159s24.21,6.75,41.33,0"/><path class="cls-8" d="M90.37,25.19S83.44,18.13,92,12.68c6-3.81-19.59,11.68-18.1,16.39,3.16,10,21.73,15.19,28.22,22S122,68,121.2,78.18c0,0,5.15-5.61,11.83-5.47,0,0,5-4.3-1.87-5l6.42-.81s-2.37-5.18-7-2.78c0,0,1.43-4.62,5.71-5.62,0,0-5.86-2.18-9.26,1.83,0,0-.08-5.57,4-7.49,0,0-6.12.21-8.33,2.83,0,0,5.33-9.38,9.69-11,0,0-7.54,1.31-11.75,5.8,0,0,1.28-7,4.51-9.15,0,0-4.06-1.67-9,3.74a9.23,9.23,0,0,1,5-9.28s-9.68,3-10.81,6.76c0,0,.68-8.53,4.9-10.07,0,0-7.7,1.76-9.54,5.12,0,0-2.44-5.93,3.89-10.49,0,0-5.92.34-8.4,5.67,0,0-.53-6.89,4.57-9.75,0,0-8.58,2.29-9.68,7.7,0,0-.85-9.5,3.86-12.19C100,18.56,90.05,19.2,90.37,25.19Z"/><path class="cls-8" d="M54.83,25.82S61.62,19,53.11,13.46c-6-3.89,19.38,12,17.94,16.57C68,39.81,49.71,38.45,43.36,45S22,55.17,22.75,65.2c0,0-3.1,6.36-9.69,6.34,0,0-5-4.36,1.81-4.86l-6.32-1s2.29-5,6.85-2.56c0,0-1.44-4.59-5.67-5.68,0,0,5.76-2,9.15,2,0,0,0-5.48-3.95-7.47,0,0,6,.35,8.23,3,0,0-5.32-9.36-9.62-11.06,0,0,7.44,1.48,11.61,6,0,0-1.3-6.86-4.5-9.11,0,0,4-1.55,8.86,3.9a9.36,9.36,0,0,0-5-9.26s9.56,3.16,10.69,6.92c0,0-.72-8.42-4.89-10,0,0,7.6,1.92,9.43,5.27,0,0,2.37-5.78-3.89-10.42,0,0,5.83.48,8.31,5.79,0,0,.49-6.76-4.56-9.71,0,0,8.47,2.47,9.58,7.82,0,0,.79-9.33-3.87-12.09C45.31,19.06,55.11,19.93,54.83,25.82Z"/><path class="cls-8" d="M133.25,92S113.93,74.84,111.82,64,90.16,46.18,90.16,46.18c-18.15,7.89-46.43-4-47.92,1.63S32.09,58,24.59,65.46,15.1,90.8,15.1,90.8s2.25,16.14-4.16-1.87c-.17-.48-.33-1-.47-1.46,4.09-37.21,20.88-64.82,61.29-64.82,42.26,0,56.12,20.9,60.47,50.84C133.05,83.23,133.25,92,133.25,92Z"/><path class="cls-9" d="M29,58.09c-1.89,7.75,15.39-11,15.39-11S70.68,49,84,46.68s27.49,15,27.49,15,.72-21.69.64-27.32c-.06-4.56-6.75-10.59-9.76-15.37-4.42-7-21.63-6.8-30.27-6.8s-20.79,4.48-26.84,3.26"/><path class="cls-9" d="M93.16,44.43,106.73,55.8l9.21,9.65-6.51-15.84,6.51,4.21L104.68,36.89l11.26,7.17L109.8,31.29S53.58,22,35.14,33.77c0,0-6.72,7.84-8.68,9.54s8.68-1.88,8.68-1.88L26.22,53.07l9.32-5.63-13.81,18L34.31,57S38.59,44.06,44,44.06"/><path class="cls-9" d="M45.23,15.41c-6-1.23-12.39,13.26-12.39,13.26S30.9,50.34,29,58.09"/><path class="cls-9" d="M44,44.06c5.38,0,29.16,14.26,49.18.37"/><path class="cls-9" d="M46.18,17.32s-9.89.22-8-9.78c1.34-7-4.87,22.28-.42,24.42,9.47,4.54,25.95-5.47,35.37-5.55s27.37-.09,34.29,7.42c0,0-2.08-10.37,2.6-15.15,0,0,.28-6.59-4.92-2.05l3.8-5.23s-5.39-1.81-6.79,3.19c0,0-2.4-4.21-.2-8,0,0-5.6,2.79-5,8,0,0-4.12-3.76-2.76-8,0,0-4,4.61-3.63,8,0,0-3.19-10.3-1.4-14.59,0,0-4.19,6.4-3.79,12.54,0,0-4.2-5.68-3.6-9.55,0,0-4,1.82-3.39,9.1A9.24,9.24,0,0,1,75,2.08s-4.44,9.1-2.45,12.51c0,0-5.76-6.33-4-10.46,0,0-4,6.82-2.8,10.46,0,0-6-2.28-5-10,0,0-3.8,4.55-1.6,10,0,0-5.39-4.32-4-10,0,0-4.19,7.84-1,12.33,0,0-7.51-5.87-6.25-11.15C47.92,5.76,41.59,13.45,46.18,17.32Z"/></g></g></g></svg>